<svg width="31" height="30" viewBox="0 0 31 30" fill="none" xmlns="http://www.w3.org/2000/svg">
<g id="Buy">
<path id="Stroke 1" d="M2.01056 1.73938L5.04389 2.26438L6.44827 18.9958C6.56056 20.3623 7.70243 21.4108 9.07327 21.4065H24.9822C26.2904 21.4094 27.4001 20.4469 27.5854 19.1519L28.9693 9.58813C29.1239 8.51917 28.3816 7.5275 27.3141 7.37292C27.2208 7.3598 5.53098 7.35251 5.53098 7.35251" stroke="#FF7074" stroke-width="2.5" stroke-linecap="round" stroke-linejoin="round"/>
<path id="Stroke 3" d="M18.5991 12.7424H22.6431" stroke="#FF7074" stroke-width="2.5" stroke-linecap="round" stroke-linejoin="round"/>
<path id="Stroke 5" fill-rule="evenodd" clip-rule="evenodd" d="M8.43347 26.4619C8.87243 26.4619 9.2268 26.8177 9.2268 27.2552C9.2268 27.6942 8.87243 28.05 8.43347 28.05C7.99451 28.05 7.64014 27.6942 7.64014 27.2552C7.64014 26.8177 7.99451 26.4619 8.43347 26.4619Z" fill="#FF7074" stroke="#FF7074" stroke-width="2.5" stroke-linecap="round" stroke-linejoin="round"/>
<path id="Stroke 7" fill-rule="evenodd" clip-rule="evenodd" d="M24.8839 26.4619C25.3229 26.4619 25.6787 26.8177 25.6787 27.2552C25.6787 27.6942 25.3229 28.05 24.8839 28.05C24.445 28.05 24.0906 27.6942 24.0906 27.2552C24.0906 26.8177 24.445 26.4619 24.8839 26.4619Z" fill="#130F26" fill-opacity="0.4" stroke="#FF7074" stroke-width="2.5" stroke-linecap="round" stroke-linejoin="round"/>
</g>
</svg>
