<svg width="35" height="35" viewBox="0 0 35 35" fill="none" xmlns="http://www.w3.org/2000/svg">
<g id="Iconly/Bulk/Home">
<g id="Home">
<path id="Home_2" d="M13.3346 30.3072V25.8347C13.3346 24.7013 14.2562 23.7806 15.3977 23.7734H19.5892C20.7359 23.7734 21.6654 24.6963 21.6654 25.8347V30.2942C21.6654 31.2772 22.4642 32.0761 23.4543 32.0832H26.3139C27.6495 32.0867 28.9315 31.5624 29.8771 30.626C30.8227 29.6896 31.3542 28.4181 31.3542 27.0922V14.3877C31.3541 13.3166 30.8759 12.3006 30.0484 11.6134L20.3335 3.89993C18.6353 2.55076 16.2099 2.59435 14.562 4.00364L5.05607 11.6134C4.18942 12.2803 3.67144 13.2993 3.64584 14.3877V27.0792C3.64584 29.8429 5.90244 32.0832 8.6861 32.0832H11.4804C11.9571 32.0867 12.4155 31.9011 12.7538 31.5677C13.0921 31.2342 13.2824 30.7805 13.2824 30.3072H13.3346Z" fill="#FF7074"/>
</g>
</g>
</svg>
