<svg width="35" height="35" viewBox="0 0 35 35" fill="none" xmlns="http://www.w3.org/2000/svg">
<g id="ic:round-search">
<path id="Vector" d="M22.6042 20.4167H21.4521L21.0438 20.0229C21.9552 18.9641 22.6212 17.717 22.9944 16.3707C23.3675 15.0244 23.4384 13.6123 23.2021 12.2354C22.5167 8.18127 19.1334 4.94377 15.05 4.44794C13.6145 4.26633 12.1564 4.41552 10.7874 4.88411C9.41832 5.3527 8.17463 6.12826 7.15145 7.15145C6.12826 8.17463 5.3527 9.41832 4.88411 10.7874C4.41552 12.1564 4.26633 13.6145 4.44794 15.05C4.94377 19.1334 8.18127 22.5167 12.2354 23.2021C13.6123 23.4384 15.0244 23.3675 16.3707 22.9944C17.717 22.6212 18.9641 21.9552 20.0229 21.0438L20.4167 21.4521V22.6042L26.6146 28.8021C27.2125 29.4 28.1896 29.4 28.7875 28.8021C29.3854 28.2042 29.3854 27.2271 28.7875 26.6292L22.6042 20.4167ZM13.8542 20.4167C10.2229 20.4167 7.29169 17.4854 7.29169 13.8542C7.29169 10.2229 10.2229 7.29169 13.8542 7.29169C17.4854 7.29169 20.4167 10.2229 20.4167 13.8542C20.4167 17.4854 17.4854 20.4167 13.8542 20.4167Z" fill="#FF7074"/>
</g>
</svg>
